<?xml version="1.0" standalone="no"?>
<!DOCTYPE svg PUBLIC "-//W3C//DTD SVG 20010904//EN"
 "http://www.w3.org/TR/2001/REC-SVG-20010904/DTD/svg10.dtd">
<svg version="1.0" xmlns="http://www.w3.org/2000/svg"
 width="1818.000000pt" height="1818.000000pt" viewBox="0 0 1818.000000 1818.000000"
 preserveAspectRatio="xMidYMid meet">
<metadata>
Created by potrace 1.14, written by Peter Selinger 2001-2017
</metadata>
<g transform="translate(0.000000,1818.000000) scale(0.100000,-0.100000)"
fill="#000000" stroke="none">
<path d="M9050 18162 c-53 -35 -146 -108 -162 -127 -9 -11 -31 -47 -48 -80
l-31 -60 -107 0 c-146 -1 -150 -3 -146 -66 2 -27 15 -88 29 -133 14 -46 25
-87 25 -90 0 -3 -17 -13 -38 -21 -21 -9 -46 -28 -55 -44 -17 -29 -17 -29 16
-53 64 -48 104 -67 175 -83 62 -14 75 -21 87 -45 20 -38 19 -41 -7 -36 -13 3
-31 5 -40 5 -9 1 -31 17 -49 36 -50 53 -102 69 -205 62 -101 -6 -112 -13 -94
-59 36 -93 113 -168 173 -168 17 0 26 -7 31 -22 9 -36 8 -38 -27 -38 -36 0
-52 9 -111 64 -22 20 -51 36 -65 37 -80 4 -107 -14 -151 -101 -26 -52 -74
-105 -127 -141 l-24 -16 54 -54 c29 -30 75 -80 102 -112 87 -104 134 -108 227
-19 24 23 42 33 53 28 11 -4 15 -12 11 -22 -3 -9 -6 -22 -6 -30 0 -7 -17 -22
-37 -33 -84 -43 -108 -92 -112 -223 l-2 -77 70 4 c119 5 174 32 211 105 10 20
20 51 23 69 9 56 52 71 59 20 4 -25 -2 -38 -30 -68 -57 -60 -74 -110 -73 -213
1 -70 -3 -100 -19 -136 -11 -25 -19 -46 -17 -48 1 -2 48 7 102 20 110 26 217
66 248 93 20 18 20 17 14 -17 -11 -65 -16 -81 -39 -127 -53 -108 -174 -203
-299 -236 -54 -14 -164 -15 -224 -2 -98 21 -247 131 -287 212 -15 30 -15 30
24 54 43 26 84 80 97 125 23 81 -15 179 -89 229 -39 26 -54 30 -115 30 -63 0
-75 -3 -117 -32 -129 -90 -117 -286 22 -358 37 -19 37 -36 5 -104 -54 -111
-175 -205 -304 -235 -66 -15 -181 -14 -237 2 -127 39 -258 152 -289 250 -6 21
-5 22 12 14 29 -16 79 -22 217 -29 l128 -6 -18 29 c-10 16 -24 36 -31 45 -7 8
-19 50 -28 93 -18 96 -52 156 -110 196 -25 17 -45 34 -46 38 0 4 -3 19 -5 35
-4 21 -1 27 13 27 26 0 37 -10 57 -57 34 -76 89 -113 171 -113 58 0 145 19
145 32 0 24 -33 135 -51 170 -21 42 -63 73 -121 88 -27 8 -39 18 -47 41 -15
43 4 46 73 9 95 -49 131 -41 177 41 19 33 55 96 82 140 26 44 47 83 47 87 0 4
-21 16 -48 26 -32 13 -70 44 -120 95 -71 73 -75 76 -120 76 -53 0 -94 -24
-112 -67 -16 -37 -51 -67 -88 -74 -30 -6 -32 -5 -32 24 0 25 5 31 29 37 56 12
112 99 127 199 l7 49 -79 -6 c-106 -9 -168 -40 -211 -105 -23 -35 -41 -51 -68
-59 -37 -12 -37 -12 -30 15 10 39 19 48 90 82 43 21 81 50 115 88 l51 56 -24
24 c-14 14 -41 26 -64 29 -38 5 -40 7 -37 37 2 17 4 72 5 121 1 94 -11 148
-33 140 -7 -2 -36 -6 -65 -9 -29 -2 -76 -12 -104 -21 l-53 -18 -30 39 c-55 68
-100 104 -176 140 -122 58 -126 58 -199 -22 -67 -73 -102 -135 -124 -223 -13
-52 -16 -55 -48 -57 -65 -5 -108 -14 -154 -34 -47 -20 -47 -21 -40 -58 3 -20
29 -79 56 -131 48 -93 49 -94 29 -108 -32 -22 -58 -53 -63 -74 -9 -35 106 -80
213 -84 83 -4 76 -2 99 -27 25 -27 21 -33 -22 -36 -24 -2 -50 7 -83 27 -53 33
-95 40 -163 27 -56 -10 -131 -44 -131 -58 0 -6 11 -25 24 -42 69 -90 111 -117
184 -120 35 -1 47 -5 52 -21 5 -14 2 -23 -13 -31 -26 -15 -72 -4 -121 29 -48
33 -106 36 -146 7 -27 -19 -60 -84 -60 -118 0 -24 -35 -89 -76 -138 l-33 -41
37 -21 c20 -11 79 -52 131 -91 135 -101 143 -100 261 37 24 28 40 21 40 -17 0
-18 -12 -38 -36 -62 -20 -18 -42 -46 -50 -61 -18 -35 -19 -128 -2 -193 13 -47
15 -50 43 -47 51 5 124 33 156 59 42 36 61 77 64 146 3 45 8 62 24 73 18 13
20 11 31 -21 10 -30 9 -39 -8 -62 -48 -71 -58 -138 -31 -230 16 -58 18 -161 3
-185 -9 -14 5 -9 97 37 104 52 174 97 208 134 l23 26 -6 -48 c-21 -153 -123
-279 -276 -339 -143 -55 -355 -15 -449 86 l-25 26 27 28 c75 78 77 212 4 290
-56 61 -160 82 -238 49 -123 -52 -163 -223 -77 -327 21 -25 72 -58 102 -66 26
-6 27 -9 22 -48 -16 -109 -94 -195 -187 -204 -49 -4 -174 26 -211 52 -16 11
-11 15 42 31 33 10 60 21 60 25 0 4 -16 20 -34 35 -22 18 -49 57 -73 108 -42
88 -95 143 -149 153 -38 7 -48 17 -58 57 -11 44 29 35 75 -17 64 -73 123 -81
225 -32 76 37 78 43 43 112 -17 32 -47 76 -68 97 -34 35 -42 38 -98 40 -55 2
-63 5 -77 28 -14 23 -14 28 -2 39 11 9 20 9 37 0 12 -7 43 -12 70 -13 66 -1
94 26 109 102 10 54 46 210 55 241 4 12 -11 20 -64 32 -48 11 -88 29 -129 58
-45 32 -66 41 -90 38 -54 -6 -87 -40 -106 -107 -9 -33 -24 -67 -32 -76 -22
-22 -50 -35 -58 -28 -13 13 -5 53 13 62 22 12 50 54 58 84 8 35 10 140 3 167
-8 31 -37 31 -101 1 -47 -22 -78 -62 -98 -124 -9 -25 -22 -42 -38 -48 -59 -22
-57 24 5 94 43 50 122 190 122 218 0 9 -23 10 -87 5 l-88 -6 -28 87 c-15 49
-39 107 -53 130 -22 39 -27 41 -50 33 -46 -18 -118 -72 -186 -141 l-67 -67
-58 15 c-154 40 -319 -34 -398 -178 l-26 -49 30 -1 c17 -1 34 -2 39 -3 4 -1
24 -5 46 -10 97 -19 221 -99 330 -212 56 -59 64 -73 71 -118 6 -47 6 -81 0
-131 -4 -35 35 -157 81 -254 49 -103 102 -176 137 -186 31 -10 73 -51 117
-115 37 -54 108 -121 167 -156 16 -11 64 -51 106 -90 93 -88 267 -182 357
-193 23 -3 7 -19 -25 -25 -79 -15 -121 -102 -84 -173 14 -27 74 -57 100 -50
24 7 60 -22 97 -77 23 -36 28 -53 25 -88 -17 -220 -13 -235 90 -333 88 -83 98
-99 100 -168 1 -45 -3 -61 -31 -102 -27 -41 -32 -57 -28 -91 9 -81 32 -103
146 -138 116 -34 295 -80 415 -105 55 -12 118 -26 140 -31 49 -11 262 -51 290
-55 11 -1 34 -5 50 -8 39 -8 78 -15 140 -22 28 -4 57 -8 65 -10 19 -5 62 -11
225 -30 198 -24 202 -24 243 -29 20 -3 71 -8 112 -11 41 -3 91 -8 110 -10 19
-2 76 -6 125 -9 50 -4 115 -9 145 -12 30 -3 91 -7 135 -9 44 -2 150 -7 235
-12 203 -10 1020 -9 1225 1 88 4 187 9 220 11 33 1 101 5 150 9 194 14 257 19
370 31 28 3 73 7 100 10 28 3 68 7 90 10 22 2 67 7 100 10 33 4 71 8 85 10 14
2 48 7 75 11 28 3 58 8 69 10 10 2 44 6 75 10 31 3 58 8 61 9 3 2 30 6 60 10
30 3 62 8 70 10 8 2 31 7 50 10 19 3 73 13 120 21 47 9 94 18 105 20 11 2 40
8 65 14 25 5 56 12 70 14 14 2 66 14 115 26 50 12 98 23 107 25 9 2 61 16 115
30 54 15 108 29 121 31 45 9 130 45 145 62 34 39 41 126 11 167 -7 11 -22 31
-31 44 -12 17 -17 40 -15 83 2 66 30 112 90 149 60 38 110 135 105 204 -1 11
-5 61 -9 110 l-6 90 49 49 c44 45 54 50 98 52 41 1 54 7 77 33 55 62 29 149
-54 179 -27 9 -48 19 -48 23 0 3 26 13 58 23 119 38 229 105 334 204 26 25 61
53 78 63 27 17 56 41 115 94 12 11 31 34 41 51 30 50 90 112 126 130 49 25 82
68 132 169 62 127 86 210 85 303 -1 112 6 137 48 189 108 131 278 235 408 249
28 3 51 7 53 9 8 7 -51 104 -81 132 -96 91 -229 122 -357 84 -34 -11 -36 -10
-95 52 -66 69 -130 118 -186 141 l-36 15 -35 -72 c-19 -40 -41 -97 -49 -127
-13 -54 -25 -73 -41 -64 -21 13 -144 22 -154 11 -9 -9 87 -185 120 -219 42
-43 58 -78 45 -99 -16 -25 -59 10 -80 65 -23 61 -43 84 -97 108 -88 40 -100
31 -99 -77 0 -77 21 -138 59 -170 23 -20 29 -31 24 -49 -13 -50 -79 2 -92 73
-9 49 -31 85 -64 105 -41 24 -72 20 -126 -17 -80 -55 -95 -62 -168 -72 -15 -2
-30 -6 -33 -8 -2 -3 5 -40 16 -83 11 -44 25 -108 31 -144 6 -35 18 -76 26 -91
21 -42 71 -53 140 -33 26 7 47 8 58 2 15 -8 15 -12 -4 -38 -15 -21 -26 -28
-45 -24 -48 9 -105 -12 -138 -51 -34 -40 -87 -132 -87 -152 0 -17 137 -83 172
-83 44 0 96 28 130 71 46 58 95 50 64 -9 -10 -20 -26 -31 -46 -36 -62 -12
-108 -56 -150 -142 -21 -44 -56 -97 -76 -117 -21 -20 -36 -38 -33 -40 2 -3 31
-13 63 -24 l60 -19 -70 -28 c-41 -17 -95 -30 -134 -33 -59 -4 -69 -2 -111 25
-36 23 -54 45 -77 94 -17 34 -33 78 -36 96 -4 28 -1 32 19 32 38 0 117 61 142
110 32 61 27 152 -11 210 -71 107 -231 124 -321 34 -68 -67 -81 -173 -32 -257
15 -25 34 -48 43 -51 15 -6 15 -8 -2 -28 -26 -28 -109 -81 -164 -102 -58 -23
-191 -29 -256 -12 -168 44 -293 178 -322 344 l-10 54 32 -30 c40 -38 121 -89
218 -135 42 -20 79 -37 81 -37 3 0 1 19 -5 43 -10 44 -7 93 12 167 17 70 11
129 -22 188 -22 41 -27 60 -22 87 6 31 8 33 30 23 21 -10 24 -18 24 -65 0 -75
31 -137 84 -167 41 -24 128 -53 156 -52 16 1 27 41 36 133 8 77 -5 114 -60
168 -32 32 -39 46 -37 70 2 17 4 31 6 33 8 9 37 -16 66 -58 66 -97 103 -94
254 21 22 16 61 44 88 60 26 17 47 34 47 38 0 4 -9 16 -20 26 -31 28 -74 112
-95 182 -22 76 -38 92 -101 99 -43 5 -55 2 -97 -25 -69 -45 -153 -40 -129 6 8
15 22 20 55 20 25 1 57 8 73 16 33 17 91 77 118 121 18 28 18 29 0 40 -27 16
-61 26 -129 40 -69 14 -110 7 -164 -30 -38 -25 -76 -30 -101 -14 -13 9 -11 14
12 33 22 18 40 23 85 22 67 -1 110 8 176 38 59 26 61 47 7 99 l-41 38 43 83
c50 93 74 165 61 178 -19 19 -121 48 -175 50 l-56 2 -12 56 c-17 79 -62 158
-130 231 -68 73 -71 73 -193 17 -72 -34 -144 -93 -186 -155 -16 -22 -27 -30
-34 -23 -19 15 -88 32 -159 40 -66 7 -68 6 -76 -19 -7 -21 -9 -203 -2 -235 5
-25 -3 -33 -40 -39 -34 -5 -80 -37 -80 -56 0 -19 118 -119 172 -145 47 -23 65
-38 75 -62 12 -31 12 -33 -7 -33 -33 0 -68 22 -80 50 -28 67 -104 107 -224
117 l-69 5 6 -51 c11 -96 56 -169 121 -196 28 -12 36 -21 36 -40 0 -21 -4 -24
-28 -21 -40 4 -65 23 -91 68 -38 66 -110 95 -163 67 -12 -6 -33 -26 -47 -43
-49 -60 -91 -95 -146 -120 l-55 -26 43 -68 c23 -37 58 -98 77 -135 53 -104
111 -122 202 -62 51 34 81 27 67 -15 -7 -18 -20 -30 -37 -35 -69 -17 -111 -47
-136 -99 -27 -56 -46 -119 -46 -152 0 -17 9 -24 44 -33 54 -13 136 -14 169 -2
36 14 87 70 108 119 15 35 23 43 41 40 19 -2 22 -8 20 -33 -2 -17 -12 -36 -25
-45 -82 -57 -124 -121 -134 -208 -5 -53 -33 -117 -63 -150 l-21 -22 23 -1
c111 -4 271 11 322 30 31 12 31 11 6 -39 -31 -61 -114 -144 -177 -178 -77 -40
-133 -55 -223 -57 -194 -4 -375 114 -434 285 -14 40 -14 41 11 51 13 5 27 9
31 9 19 0 84 66 98 98 68 157 -44 316 -211 299 -135 -14 -222 -160 -169 -285
17 -42 71 -102 91 -102 18 0 17 -5 -12 -54 -120 -205 -383 -280 -605 -173
-115 56 -219 188 -236 302 -3 22 -8 44 -11 49 -3 4 14 -3 39 -18 55 -32 137
-61 246 -87 45 -10 85 -19 87 -19 2 0 -5 21 -17 48 -16 36 -20 66 -19 127 2
105 -15 158 -66 215 -31 34 -41 53 -39 74 4 34 7 36 32 30 15 -4 24 -19 33
-56 26 -114 84 -157 217 -161 l79 -2 0 65 c-1 136 -15 168 -97 223 -44 29 -54
41 -56 66 -2 26 1 30 17 28 11 -2 32 -16 48 -31 30 -30 91 -63 111 -60 6 1 19
2 28 3 8 0 34 22 57 47 23 26 74 81 113 122 l71 76 -36 26 c-55 40 -82 72
-121 142 -62 110 -136 122 -230 34 -48 -45 -87 -58 -116 -38 -22 14 3 52 33
52 36 0 84 30 116 72 23 30 67 120 67 137 0 10 -35 14 -142 15 -53 1 -94 3
-90 6 4 3 33 23 65 44 54 36 57 40 44 60 -8 12 -34 32 -58 46 l-45 25 18 55
c28 84 46 183 38 205 -9 26 -59 34 -167 30 l-82 -4 -36 67 c-40 73 -83 118
-166 174 -68 46 -88 51 -119 30z m445 -784 c-72 -64 -150 -73 -112 -14 12 18
33 29 79 39 35 9 67 16 72 16 5 1 -13 -18 -39 -41z m-334 -1492 c79 -79 158
-129 252 -161 l59 -21 -380 0 -381 0 59 22 c92 33 167 82 244 161 39 39 72 72
72 72 1 1 35 -32 75 -73z m-982 -110 c45 -29 93 -49 171 -71 l45 -13 -40 -2
c-22 -1 -58 -3 -80 -5 -22 -1 -89 -6 -150 -9 -60 -4 -137 -9 -170 -12 -33 -3
-87 -7 -120 -8 l-60 -4 68 33 c73 35 173 108 203 148 l19 25 35 -28 c19 -15
55 -39 79 -54z m1997 16 c35 -33 100 -78 146 -101 l82 -42 -74 6 c-41 4 -95 8
-119 11 -25 2 -99 6 -165 10 -67 3 -134 7 -151 9 -16 2 -50 4 -75 5 l-45 1 55
15 c72 19 163 63 225 108 27 20 52 36 53 36 2 0 33 -26 68 -58z m-2981 -84
c55 -33 171 -78 201 -78 16 0 27 -17 11 -17 -33 -1 -188 -18 -244 -27 -21 -4
-56 -8 -78 -11 -34 -4 -125 -17 -215 -30 -85 -13 -114 -14 -92 -5 74 31 183
133 239 222 l36 58 41 -38 c23 -21 68 -54 101 -74z m4062 -67 c25 -24 71 -59
102 -78 53 -34 54 -35 21 -29 -86 14 -119 19 -240 35 -47 6 -94 13 -105 15
-12 2 -52 7 -90 11 -39 4 -79 9 -90 10 -11 2 -35 4 -52 4 -45 1 -42 17 4 26
79 15 221 93 287 157 l28 29 45 -68 c24 -37 65 -88 90 -112z m878 -225 c14
-16 24 -30 22 -32 -1 -1 -71 13 -156 32 -84 19 -162 34 -174 34 -22 0 -16 13
9 16 36 5 157 46 187 63 l32 18 28 -51 c15 -28 39 -65 52 -80z m-5937 93 c40
-16 95 -33 122 -36 28 -3 50 -9 50 -13 0 -4 -6 -7 -12 -7 -7 0 -47 -8 -89 -17
-42 -10 -82 -18 -90 -20 -39 -7 -136 -28 -154 -33 -15 -5 -13 2 13 32 19 20
43 57 55 81 11 24 24 44 27 44 3 0 38 -14 78 -31z"/>
<path d="M8977 13114 c-1 -1 -56 -4 -122 -8 -153 -8 -265 -18 -335 -31 -8 -2
-37 -6 -65 -9 -42 -6 -98 -17 -275 -52 -50 -10 -187 -46 -255 -66 -38 -12 -72
-22 -75 -23 -201 -52 -636 -246 -874 -390 -116 -70 -303 -193 -347 -229 -15
-11 -39 -30 -53 -40 -15 -11 -36 -27 -46 -35 -10 -9 -38 -32 -62 -51 -436
-353 -825 -838 -1079 -1350 -59 -120 -135 -293 -162 -370 -9 -25 -25 -69 -36
-98 -11 -29 -20 -54 -20 -55 0 -1 -2 -9 -5 -17 -27 -79 -97 -343 -112 -420 -2
-14 -11 -59 -19 -100 -23 -122 -42 -260 -51 -369 -2 -31 -6 -76 -9 -101 -5
-48 -5 -571 -1 -680 4 -82 17 -284 21 -330 2 -19 6 -71 10 -115 3 -44 8 -91
10 -105 2 -14 7 -54 10 -90 3 -36 8 -76 10 -90 6 -39 14 -101 20 -150 3 -25
10 -74 16 -110 6 -36 12 -76 14 -90 2 -14 6 -43 10 -65 4 -22 9 -49 11 -60 2
-11 9 -47 15 -80 6 -33 13 -71 16 -85 2 -14 11 -59 20 -100 8 -41 16 -82 18
-90 13 -65 112 -463 126 -505 5 -16 27 -91 49 -165 192 -657 480 -1326 846
-1965 239 -418 663 -1019 949 -1346 22 -25 67 -76 100 -115 262 -303 758 -788
1014 -990 13 -10 31 -26 40 -34 76 -70 432 -340 637 -482 l150 -105 121 82
c204 138 654 479 743 565 9 8 45 40 81 70 188 163 241 212 475 445 288 287
429 444 691 765 138 169 383 507 517 715 54 83 106 162 117 177 10 15 19 30
19 33 0 4 15 30 34 58 34 53 162 275 231 402 63 116 220 433 270 545 25 58 55
123 65 145 29 62 100 233 100 240 0 3 8 25 19 48 88 196 306 870 361 1117 5
19 18 72 29 117 11 45 22 92 25 105 2 13 11 53 20 91 9 37 18 82 21 100 3 17
12 66 20 107 17 87 70 412 80 485 3 28 8 61 10 75 2 14 11 93 20 175 8 83 17
170 20 195 2 25 7 83 10 130 3 47 8 117 10 155 3 39 8 175 11 304 5 191 4 235
-7 242 -9 5 -14 30 -15 71 -6 251 -45 571 -96 788 -11 47 -22 96 -24 110 -3
14 -8 34 -11 45 -8 23 -7 20 -17 60 -4 17 -11 39 -15 50 -4 11 -31 91 -59 177
-314 953 -1012 1778 -1927 2280 -122 67 -395 190 -525 237 -19 7 -44 17 -55
21 -64 28 -414 126 -510 144 -11 2 -47 9 -80 15 -33 6 -71 13 -85 16 -14 3
-47 8 -75 11 -27 4 -52 8 -55 10 -3 1 -44 6 -90 9 -47 4 -88 9 -91 11 -12 7
-484 24 -492 18z"/>
<path d="M3110 3702 c0 -9 21 -37 46 -62 118 -114 221 -291 249 -427 3 -15 10
-52 14 -82 8 -51 6 -56 -18 -79 -44 -42 -126 -68 -237 -76 -57 -4 -86 -19 -69
-34 6 -5 53 -26 105 -46 260 -104 477 -255 612 -424 l58 -73 -19 -47 c-10 -26
-35 -84 -55 -130 -20 -46 -38 -93 -40 -105 -3 -12 -13 -51 -22 -87 -12 -46
-17 -111 -18 -220 -1 -154 -1 -155 28 -205 38 -66 269 -295 374 -373 166 -123
333 -197 492 -219 123 -16 277 5 347 48 53 33 120 145 139 234 14 63 24 118
29 161 16 141 29 207 52 262 12 30 16 32 31 21 30 -23 187 -153 192 -159 3 -3
52 -44 110 -91 58 -46 107 -86 110 -89 9 -10 224 -176 305 -235 116 -85 255
-179 376 -254 58 -36 114 -71 125 -78 10 -7 46 -27 79 -46 33 -19 78 -44 100
-57 217 -123 557 -271 844 -366 121 -40 398 -114 476 -128 17 -3 39 -7 50 -9
68 -16 237 -43 317 -52 21 -3 50 -7 65 -10 16 -2 57 -7 93 -11 36 -3 79 -8 95
-10 202 -26 951 -26 1115 0 14 3 59 7 100 11 41 3 82 8 90 10 8 2 51 9 95 14
44 6 91 13 105 16 14 3 41 8 60 11 53 8 351 74 380 83 14 5 68 21 120 36 123
35 393 134 540 197 114 49 367 174 445 218 218 125 203 115 400 245 256 168
502 356 817 622 86 73 162 133 167 133 21 0 53 -108 66 -220 26 -229 63 -345
134 -423 95 -104 332 -119 572 -36 82 29 186 85 292 160 117 81 351 314 392
389 28 52 30 61 30 170 0 63 -4 140 -8 171 -10 84 -52 218 -102 334 -25 57
-45 107 -45 112 0 12 40 61 120 146 133 142 323 263 560 357 47 19 89 38 94
42 17 14 -6 26 -59 32 -132 17 -178 29 -223 60 -46 31 -47 33 -45 79 7 163
103 360 247 511 66 68 74 80 57 90 -18 12 -328 -103 -391 -144 -14 -9 -32 -19
-42 -23 -31 -11 -183 -114 -260 -176 -97 -78 -253 -231 -348 -341 -40 -47 -84
-98 -97 -114 -14 -15 -27 -42 -30 -60 -3 -17 -9 -51 -13 -76 -11 -58 -11 -302
0 -360 4 -25 11 -66 14 -91 3 -26 13 -68 20 -93 14 -45 13 -48 -12 -79 -96
-119 -227 -193 -377 -213 -22 -3 -45 -7 -51 -9 -30 -9 -36 19 -70 340 -2 28
-7 61 -9 75 -3 14 -7 40 -10 59 -14 84 -64 160 -128 193 -73 39 -223 29 -342
-21 -76 -33 -242 -116 -300 -151 -111 -68 -347 -231 -415 -287 -8 -7 -44 -35
-80 -64 -36 -28 -74 -58 -85 -67 -11 -10 -42 -35 -70 -57 -27 -22 -52 -42 -55
-45 -14 -15 -293 -233 -340 -266 -30 -21 -57 -41 -60 -44 -10 -10 -206 -138
-260 -168 -85 -49 -298 -152 -313 -152 -7 0 -17 -4 -23 -9 -33 -32 -546 -170
-729 -196 -22 -4 -56 -10 -75 -15 -19 -5 -62 -12 -95 -16 -33 -3 -62 -8 -65
-9 -3 -2 -34 -6 -70 -10 -36 -4 -72 -8 -80 -10 -14 -3 -86 -11 -176 -20 -57
-5 -208 -17 -279 -21 -84 -4 -537 -4 -610 0 -95 7 -217 16 -250 20 -16 2 -64
7 -105 11 -41 4 -84 9 -95 11 -11 2 -40 7 -65 10 -25 3 -83 12 -130 21 -47 8
-96 17 -110 20 -14 2 -53 10 -88 18 -34 8 -75 17 -92 20 -16 3 -99 25 -184 50
-449 129 -828 349 -1406 818 -99 80 -336 255 -448 330 -490 330 -788 407 -912
236 -41 -57 -57 -116 -75 -284 -9 -77 -17 -153 -20 -170 -2 -16 -7 -57 -10
-91 l-7 -60 -40 3 c-160 13 -314 89 -409 203 l-37 45 25 120 c34 165 38 407 8
551 -13 61 -298 370 -469 507 -133 108 -217 162 -341 222 -97 46 -330 135
-356 135 -5 0 -9 -8 -9 -18z"/>
</g>
</svg>
